<?xml version="1.0" encoding="UTF-8" standalone="no"?>
<!DOCTYPE svg PUBLIC "-//W3C//DTD SVG 1.1//EN"
 "http://www.w3.org/Graphics/SVG/1.1/DTD/svg11.dtd">
<!-- Generated by graphviz version 2.36.0 (20140111.2315)
 -->
<!-- Title: G Pages: 1 -->
<svg width="623pt" height="1994pt"
 viewBox="0.00 0.00 623.00 1994.00" xmlns="http://www.w3.org/2000/svg" xmlns:xlink="http://www.w3.org/1999/xlink">
<g id="graph0" class="graph" transform="scale(1 1) rotate(0) translate(4 1990)">
<title>G</title>
<polygon fill="white" stroke="none" points="-4,4 -4,-1990 619,-1990 619,4 -4,4"/>
<g id="clust1" class="cluster"><title>cluster_Global</title>
<path fill="none" stroke="gray" d="M20,-44C20,-44 595,-44 595,-44 601,-44 607,-50 607,-56 607,-56 607,-1966 607,-1966 607,-1972 601,-1978 595,-1978 595,-1978 20,-1978 20,-1978 14,-1978 8,-1972 8,-1966 8,-1966 8,-56 8,-56 8,-50 14,-44 20,-44"/>
<text text-anchor="middle" x="307.5" y="-1965.2" font-family="Times,serif" font-size="11.00" fill="gray">Global</text>
</g>
<g id="clust2" class="cluster"><title>cluster_\Parse</title>
<path fill="none" stroke="gray" d="M28,-52C28,-52 587,-52 587,-52 593,-52 599,-58 599,-64 599,-64 599,-1938 599,-1938 599,-1944 593,-1950 587,-1950 587,-1950 28,-1950 28,-1950 22,-1950 16,-1944 16,-1938 16,-1938 16,-64 16,-64 16,-58 22,-52 28,-52"/>
<text text-anchor="middle" x="307.5" y="-1937.2" font-family="Times,serif" font-size="11.00" fill="gray">Parse</text>
</g>
<g id="clust3" class="cluster"><title>cluster_\Parse\Internal</title>
<path fill="none" stroke="gray" d="M36,-428C36,-428 579,-428 579,-428 585,-428 591,-434 591,-440 591,-440 591,-812 591,-812 591,-818 585,-824 579,-824 579,-824 36,-824 36,-824 30,-824 24,-818 24,-812 24,-812 24,-440 24,-440 24,-434 30,-428 36,-428"/>
<text text-anchor="middle" x="307.5" y="-811.2" font-family="Times,serif" font-size="11.00" fill="gray">Internal</text>
</g>
<g id="clust4" class="cluster"><title>cluster_\Parse\HttpClients</title>
<path fill="none" stroke="gray" d="M215,-1688C215,-1688 575,-1688 575,-1688 581,-1688 587,-1694 587,-1700 587,-1700 587,-1910 587,-1910 587,-1916 581,-1922 575,-1922 575,-1922 215,-1922 215,-1922 209,-1922 203,-1916 203,-1910 203,-1910 203,-1700 203,-1700 203,-1694 209,-1688 215,-1688"/>
<text text-anchor="middle" x="395" y="-1909.2" font-family="Times,serif" font-size="11.00" fill="gray">HttpClients</text>
</g>
<!-- \\Parse\\Internal\\AddUniqueOperation -->
<g id="node1" class="node"><title>\\Parse\\Internal\\AddUniqueOperation</title>
<polygon fill="none" stroke="black" points="569,-796 431,-796 431,-760 569,-760 569,-796"/>
<text text-anchor="middle" x="500" y="-775.2" font-family="Courier,monospace" font-size="11.00">AddUniqueOperation</text>
</g>
<!-- \\Parse\\Internal\\FieldOperation -->
<g id="node8" class="node"><title>\\Parse\\Internal\\FieldOperation</title>
<polygon fill="none" stroke="black" points="318.5,-607 207.5,-607 207.5,-571 318.5,-571 318.5,-607"/>
<text text-anchor="middle" x="263" y="-586.2" font-family="Courier,monospace" font-size="11.00">FieldOperation</text>
</g>
<!-- \\Parse\\Internal\\AddUniqueOperation&#45;&gt;\\Parse\\Internal\\FieldOperation -->
<g id="edge1" class="edge"><title>\\Parse\\Internal\\AddUniqueOperation&#45;&gt;\\Parse\\Internal\\FieldOperation</title>
<path fill="none" stroke="black" stroke-dasharray="1,5" d="M430.95,-761.955C424.86,-758.913 419.085,-755.298 414,-751 360.561,-705.835 396.17,-655.286 342,-611 337.779,-607.549 333.049,-604.639 328.06,-602.185"/>
<polygon fill="none" stroke="black" points="329.426,-598.962 318.855,-598.241 326.669,-605.397 329.426,-598.962"/>
</g>
<!-- \\Parse\\Internal\\ParseRelationOperation -->
<g id="node2" class="node"><title>\\Parse\\Internal\\ParseRelationOperation</title>
<polygon fill="none" stroke="black" points="582.5,-742 417.5,-742 417.5,-706 582.5,-706 582.5,-742"/>
<text text-anchor="middle" x="500" y="-721.2" font-family="Courier,monospace" font-size="11.00">ParseRelationOperation</text>
</g>
<!-- \\Parse\\Internal\\ParseRelationOperation&#45;&gt;\\Parse\\Internal\\FieldOperation -->
<g id="edge4" class="edge"><title>\\Parse\\Internal\\ParseRelationOperation&#45;&gt;\\Parse\\Internal\\FieldOperation</title>
<path fill="none" stroke="black" stroke-dasharray="1,5" d="M430.128,-705.938C424.475,-703.328 419.015,-700.363 414,-697 372.597,-669.238 383.851,-638.082 342,-611 337.681,-608.205 333.005,-605.76 328.161,-603.621"/>
<polygon fill="none" stroke="black" points="329.277,-600.299 318.691,-599.876 326.703,-606.808 329.277,-600.299"/>
</g>
<!-- \\Parse\\Internal\\DeleteOperation -->
<g id="node3" class="node"><title>\\Parse\\Internal\\DeleteOperation</title>
<polygon fill="none" stroke="black" points="559,-688 441,-688 441,-652 559,-652 559,-688"/>
<text text-anchor="middle" x="500" y="-667.2" font-family="Courier,monospace" font-size="11.00">DeleteOperation</text>
</g>
<!-- \\Parse\\Internal\\DeleteOperation&#45;&gt;\\Parse\\Internal\\FieldOperation -->
<g id="edge9" class="edge"><title>\\Parse\\Internal\\DeleteOperation&#45;&gt;\\Parse\\Internal\\FieldOperation</title>
<path fill="none" stroke="black" stroke-dasharray="1,5" d="M440.636,-652.402C431.659,-649.425 422.54,-646.243 414,-643 381.262,-630.569 374.936,-622.895 342,-611 337.716,-609.453 333.267,-607.945 328.765,-606.491"/>
<polygon fill="none" stroke="black" points="329.455,-603.04 318.866,-603.402 327.369,-609.722 329.455,-603.04"/>
</g>
<!-- \\Parse\\Internal\\SetOperation -->
<g id="node4" class="node"><title>\\Parse\\Internal\\SetOperation</title>
<polygon fill="none" stroke="black" points="549,-634 451,-634 451,-598 549,-598 549,-634"/>
<text text-anchor="middle" x="500" y="-613.2" font-family="Courier,monospace" font-size="11.00">SetOperation</text>
</g>
<!-- \\Parse\\Internal\\SetOperation&#45;&gt;\\Parse\\Internal\\FieldOperation -->
<g id="edge10" class="edge"><title>\\Parse\\Internal\\SetOperation&#45;&gt;\\Parse\\Internal\\FieldOperation</title>
<path fill="none" stroke="black" stroke-dasharray="1,5" d="M450.877,-610.471C415.623,-606.421 367.387,-600.878 328.752,-596.44"/>
<polygon fill="none" stroke="black" points="328.975,-592.942 318.641,-595.278 328.176,-599.897 328.975,-592.942"/>
</g>
<!-- \\Parse\\Internal\\RemoveOperation -->
<g id="node5" class="node"><title>\\Parse\\Internal\\RemoveOperation</title>
<polygon fill="none" stroke="black" points="559,-580 441,-580 441,-544 559,-544 559,-580"/>
<text text-anchor="middle" x="500" y="-559.2" font-family="Courier,monospace" font-size="11.00">RemoveOperation</text>
</g>
<!-- \\Parse\\Internal\\RemoveOperation&#45;&gt;\\Parse\\Internal\\FieldOperation -->
<g id="edge15" class="edge"><title>\\Parse\\Internal\\RemoveOperation&#45;&gt;\\Parse\\Internal\\FieldOperation</title>
<path fill="none" stroke="black" stroke-dasharray="1,5" d="M440.91,-568.674C406.891,-572.583 363.855,-577.527 328.748,-581.561"/>
<polygon fill="none" stroke="black" points="328.134,-578.108 318.599,-582.727 328.933,-585.063 328.134,-578.108"/>
</g>
<!-- \\Parse\\Internal\\AddOperation -->
<g id="node6" class="node"><title>\\Parse\\Internal\\AddOperation</title>
<polygon fill="none" stroke="black" points="549,-526 451,-526 451,-490 549,-490 549,-526"/>
<text text-anchor="middle" x="500" y="-505.2" font-family="Courier,monospace" font-size="11.00">AddOperation</text>
</g>
<!-- \\Parse\\Internal\\AddOperation&#45;&gt;\\Parse\\Internal\\FieldOperation -->
<g id="edge21" class="edge"><title>\\Parse\\Internal\\AddOperation&#45;&gt;\\Parse\\Internal\\FieldOperation</title>
<path fill="none" stroke="black" stroke-dasharray="1,5" d="M450.581,-522.36C438.54,-526.21 425.725,-530.548 414,-535 381.262,-547.431 374.936,-555.105 342,-567 337.716,-568.547 333.267,-570.055 328.765,-571.509"/>
<polygon fill="none" stroke="black" points="327.369,-568.278 318.866,-574.598 329.455,-574.96 327.369,-568.278"/>
</g>
<!-- \\Parse\\Internal\\IncrementOperation -->
<g id="node7" class="node"><title>\\Parse\\Internal\\IncrementOperation</title>
<polygon fill="none" stroke="black" points="569,-472 431,-472 431,-436 569,-436 569,-472"/>
<text text-anchor="middle" x="500" y="-451.2" font-family="Courier,monospace" font-size="11.00">IncrementOperation</text>
</g>
<!-- \\Parse\\Internal\\IncrementOperation&#45;&gt;\\Parse\\Internal\\FieldOperation -->
<g id="edge24" class="edge"><title>\\Parse\\Internal\\IncrementOperation&#45;&gt;\\Parse\\Internal\\FieldOperation</title>
<path fill="none" stroke="black" stroke-dasharray="1,5" d="M430.999,-471.663C425.037,-474.369 419.273,-477.465 414,-481 372.597,-508.762 383.851,-539.918 342,-567 337.681,-569.795 333.005,-572.24 328.161,-574.379"/>
<polygon fill="none" stroke="black" points="326.703,-571.192 318.691,-578.124 329.277,-577.701 326.703,-571.192"/>
</g>
<!-- \\Parse\\Internal\\Encodable -->
<g id="node9" class="node"><title>\\Parse\\Internal\\Encodable</title>
<polygon fill="none" stroke="black" points="109.5,-472 32.5,-472 32.5,-436 109.5,-436 109.5,-472"/>
<text text-anchor="middle" x="71" y="-451.2" font-family="Courier,monospace" font-size="11.00">Encodable</text>
</g>
<!-- \\Parse\\Internal\\FieldOperation&#45;&gt;\\Parse\\Internal\\Encodable -->
<g id="edge27" class="edge"><title>\\Parse\\Internal\\FieldOperation&#45;&gt;\\Parse\\Internal\\Encodable</title>
<path fill="none" stroke="black" d="M207.226,-577.453C199.151,-574.654 191.152,-571.214 184,-567 145.94,-544.579 111.725,-506.073 91.403,-480.328"/>
<polygon fill="none" stroke="black" points="93.9461,-477.895 85.0585,-472.128 88.4098,-482.179 93.9461,-477.895"/>
</g>
<!-- \\Parse\\HttpClients\\ParseStream -->
<g id="node10" class="node"><title>\\Parse\\HttpClients\\ParseStream</title>
<polygon fill="none" stroke="black" points="545.5,-1894 454.5,-1894 454.5,-1858 545.5,-1858 545.5,-1894"/>
<text text-anchor="middle" x="500" y="-1873.2" font-family="Courier,monospace" font-size="11.00">ParseStream</text>
</g>
<!-- \\Parse\\HttpClients\\ParseCurl -->
<g id="node11" class="node"><title>\\Parse\\HttpClients\\ParseCurl</title>
<polygon fill="none" stroke="black" points="538.5,-1840 461.5,-1840 461.5,-1804 538.5,-1804 538.5,-1840"/>
<text text-anchor="middle" x="500" y="-1819.2" font-family="Courier,monospace" font-size="11.00">ParseCurl</text>
</g>
<!-- \\Parse\\HttpClients\\ParseStreamHttpClient -->
<g id="node12" class="node"><title>\\Parse\\HttpClients\\ParseStreamHttpClient</title>
<polygon fill="none" stroke="black" points="579,-1786 421,-1786 421,-1750 579,-1750 579,-1786"/>
<text text-anchor="middle" x="500" y="-1765.2" font-family="Courier,monospace" font-size="11.00">ParseStreamHttpClient</text>
</g>
<!-- \\Parse\\HttpClients\\ParseHttpable -->
<g id="node14" class="node"><title>\\Parse\\HttpClients\\ParseHttpable</title>
<polygon fill="none" stroke="black" points="315,-1759 211,-1759 211,-1723 315,-1723 315,-1759"/>
<text text-anchor="middle" x="263" y="-1738.2" font-family="Courier,monospace" font-size="11.00">ParseHttpable</text>
</g>
<!-- \\Parse\\HttpClients\\ParseStreamHttpClient&#45;&gt;\\Parse\\HttpClients\\ParseHttpable -->
<g id="edge11" class="edge"><title>\\Parse\\HttpClients\\ParseStreamHttpClient&#45;&gt;\\Parse\\HttpClients\\ParseHttpable</title>
<path fill="none" stroke="black" stroke-dasharray="1,5" d="M420.748,-1759.01C389.695,-1755.44 354.509,-1751.4 325.353,-1748.05"/>
<polygon fill="none" stroke="black" points="325.643,-1744.56 315.309,-1746.9 324.844,-1751.51 325.643,-1744.56"/>
</g>
<!-- \\Parse\\HttpClients\\ParseCurlHttpClient -->
<g id="node13" class="node"><title>\\Parse\\HttpClients\\ParseCurlHttpClient</title>
<polygon fill="none" stroke="black" points="572.5,-1732 427.5,-1732 427.5,-1696 572.5,-1696 572.5,-1732"/>
<text text-anchor="middle" x="500" y="-1711.2" font-family="Courier,monospace" font-size="11.00">ParseCurlHttpClient</text>
</g>
<!-- \\Parse\\HttpClients\\ParseCurlHttpClient&#45;&gt;\\Parse\\HttpClients\\ParseHttpable -->
<g id="edge16" class="edge"><title>\\Parse\\HttpClients\\ParseCurlHttpClient&#45;&gt;\\Parse\\HttpClients\\ParseHttpable</title>
<path fill="none" stroke="black" stroke-dasharray="1,5" d="M427.215,-1722.25C394.715,-1725.98 356.686,-1730.35 325.517,-1733.93"/>
<polygon fill="none" stroke="black" points="324.762,-1730.5 315.227,-1735.11 325.561,-1737.45 324.762,-1730.5"/>
</g>
<!-- \\Parse\\ParseClient -->
<g id="node15" class="node"><title>\\Parse\\ParseClient</title>
<polygon fill="none" stroke="black" points="545.5,-1678 454.5,-1678 454.5,-1642 545.5,-1642 545.5,-1678"/>
<text text-anchor="middle" x="500" y="-1657.2" font-family="Courier,monospace" font-size="11.00">ParseClient</text>
</g>
<!-- \\Parse\\ParseUser -->
<g id="node16" class="node"><title>\\Parse\\ParseUser</title>
<polygon fill="none" stroke="black" points="538.5,-1138 461.5,-1138 461.5,-1102 538.5,-1102 538.5,-1138"/>
<text text-anchor="middle" x="500" y="-1117.2" font-family="Courier,monospace" font-size="11.00">ParseUser</text>
</g>
<!-- \\Parse\\ParseObject -->
<g id="node20" class="node"><title>\\Parse\\ParseObject</title>
<polygon fill="none" stroke="black" points="308.5,-1219 217.5,-1219 217.5,-1183 308.5,-1183 308.5,-1219"/>
<text text-anchor="middle" x="263" y="-1198.2" font-family="Courier,monospace" font-size="11.00">ParseObject</text>
</g>
<!-- \\Parse\\ParseUser&#45;&gt;\\Parse\\ParseObject -->
<g id="edge2" class="edge"><title>\\Parse\\ParseUser&#45;&gt;\\Parse\\ParseObject</title>
<path fill="none" stroke="black" d="M461.24,-1131.66C446.465,-1136.31 429.399,-1141.78 414,-1147 382.225,-1157.76 346.913,-1170.44 318.536,-1180.8"/>
<polygon fill="none" stroke="black" points="316.992,-1177.64 308.805,-1184.37 319.399,-1184.22 316.992,-1177.64"/>
</g>
<!-- \\Parse\\ParseInstallation -->
<g id="node17" class="node"><title>\\Parse\\ParseInstallation</title>
<polygon fill="none" stroke="black" points="565.5,-976 434.5,-976 434.5,-940 565.5,-940 565.5,-976"/>
<text text-anchor="middle" x="500" y="-955.2" font-family="Courier,monospace" font-size="11.00">ParseInstallation</text>
</g>
<!-- \\Parse\\ParseInstallation&#45;&gt;\\Parse\\ParseObject -->
<g id="edge3" class="edge"><title>\\Parse\\ParseInstallation&#45;&gt;\\Parse\\ParseObject</title>
<path fill="none" stroke="black" d="M434.125,-973.575C426.987,-976.726 420.105,-980.495 414,-985 345.206,-1035.76 296.795,-1127.83 275.757,-1173.62"/>
<polygon fill="none" stroke="black" points="272.485,-1172.36 271.571,-1182.92 278.868,-1175.24 272.485,-1172.36"/>
</g>
<!-- \\Parse\\ParseApp -->
<g id="node18" class="node"><title>\\Parse\\ParseApp</title>
<polygon fill="none" stroke="black" points="535.5,-1516 464.5,-1516 464.5,-1480 535.5,-1480 535.5,-1516"/>
<text text-anchor="middle" x="500" y="-1495.2" font-family="Courier,monospace" font-size="11.00">ParseApp</text>
</g>
<!-- \\Parse\\ParseGeoPoint -->
<g id="node19" class="node"><title>\\Parse\\ParseGeoPoint</title>
<polygon fill="none" stroke="black" points="315,-420 211,-420 211,-384 315,-384 315,-420"/>
<text text-anchor="middle" x="263" y="-399.2" font-family="Courier,monospace" font-size="11.00">ParseGeoPoint</text>
</g>
<!-- \\Parse\\ParseGeoPoint&#45;&gt;\\Parse\\Internal\\Encodable -->
<g id="edge5" class="edge"><title>\\Parse\\ParseGeoPoint&#45;&gt;\\Parse\\Internal\\Encodable</title>
<path fill="none" stroke="black" stroke-dasharray="1,5" d="M210.834,-416.003C182.445,-423.773 147.368,-433.373 119.575,-440.979"/>
<polygon fill="none" stroke="black" points="118.413,-437.669 109.691,-443.684 120.261,-444.42 118.413,-437.669"/>
</g>
<!-- \\Parse\\ParseObject&#45;&gt;\\Parse\\Internal\\Encodable -->
<g id="edge6" class="edge"><title>\\Parse\\ParseObject&#45;&gt;\\Parse\\Internal\\Encodable</title>
<path fill="none" stroke="black" stroke-dasharray="1,5" d="M257.397,-1182.9C232.12,-1083.52 110.18,-604.107 79.18,-482.229"/>
<polygon fill="none" stroke="black" points="82.4839,-481.019 76.6268,-472.191 75.6999,-482.745 82.4839,-481.019"/>
</g>
<!-- \\Parse\\ParseConfig -->
<g id="node21" class="node"><title>\\Parse\\ParseConfig</title>
<polygon fill="none" stroke="black" points="545.5,-1462 454.5,-1462 454.5,-1426 545.5,-1426 545.5,-1462"/>
<text text-anchor="middle" x="500" y="-1441.2" font-family="Courier,monospace" font-size="11.00">ParseConfig</text>
</g>
<!-- \\Parse\\ParsePush -->
<g id="node22" class="node"><title>\\Parse\\ParsePush</title>
<polygon fill="none" stroke="black" points="538.5,-1408 461.5,-1408 461.5,-1372 538.5,-1372 538.5,-1408"/>
<text text-anchor="middle" x="500" y="-1387.2" font-family="Courier,monospace" font-size="11.00">ParsePush</text>
</g>
<!-- \\Parse\\ParseSession -->
<g id="node23" class="node"><title>\\Parse\\ParseSession</title>
<polygon fill="none" stroke="black" points="549,-1624 451,-1624 451,-1588 549,-1588 549,-1624"/>
<text text-anchor="middle" x="500" y="-1603.2" font-family="Courier,monospace" font-size="11.00">ParseSession</text>
</g>
<!-- \\Parse\\ParseSession&#45;&gt;\\Parse\\ParseObject -->
<g id="edge7" class="edge"><title>\\Parse\\ParseSession&#45;&gt;\\Parse\\ParseObject</title>
<path fill="none" stroke="black" d="M450.775,-1599.99C437.187,-1596.05 423.529,-1589.59 414,-1579 307.473,-1460.63 446.998,-1347.73 342,-1228 335.619,-1220.72 327.175,-1215.41 318.202,-1211.52"/>
<polygon fill="none" stroke="black" points="319.316,-1208.2 308.724,-1207.97 316.86,-1214.76 319.316,-1208.2"/>
</g>
<!-- \\Parse\\ParseAggregateException -->
<g id="node24" class="node"><title>\\Parse\\ParseAggregateException</title>
<polygon fill="none" stroke="black" points="586,-96 414,-96 414,-60 586,-60 586,-96"/>
<text text-anchor="middle" x="500" y="-75.2" font-family="Courier,monospace" font-size="11.00">ParseAggregateException</text>
</g>
<!-- \\Parse\\ParseException -->
<g id="node36" class="node"><title>\\Parse\\ParseException</title>
<polygon fill="none" stroke="black" points="318.5,-96 207.5,-96 207.5,-60 318.5,-60 318.5,-96"/>
<text text-anchor="middle" x="263" y="-75.2" font-family="Courier,monospace" font-size="11.00">ParseException</text>
</g>
<!-- \\Parse\\ParseAggregateException&#45;&gt;\\Parse\\ParseException -->
<g id="edge8" class="edge"><title>\\Parse\\ParseAggregateException&#45;&gt;\\Parse\\ParseException</title>
<path fill="none" stroke="black" d="M413.827,-78C385.765,-78 355.035,-78 328.749,-78"/>
<polygon fill="none" stroke="black" points="328.533,-74.5001 318.533,-78 328.533,-81.5001 328.533,-74.5001"/>
</g>
<!-- \\Parse\\ParseHooks -->
<g id="node25" class="node"><title>\\Parse\\ParseHooks</title>
<polygon fill="none" stroke="black" points="542,-1246 458,-1246 458,-1210 542,-1210 542,-1246"/>
<text text-anchor="middle" x="500" y="-1225.2" font-family="Courier,monospace" font-size="11.00">ParseHooks</text>
</g>
<!-- \\Parse\\ParseQuery -->
<g id="node26" class="node"><title>\\Parse\\ParseQuery</title>
<polygon fill="none" stroke="black" points="542,-1192 458,-1192 458,-1156 542,-1156 542,-1192"/>
<text text-anchor="middle" x="500" y="-1171.2" font-family="Courier,monospace" font-size="11.00">ParseQuery</text>
</g>
<!-- \\Parse\\ParseMemoryStorage -->
<g id="node27" class="node"><title>\\Parse\\ParseMemoryStorage</title>
<polygon fill="none" stroke="black" points="569,-325 431,-325 431,-289 569,-289 569,-325"/>
<text text-anchor="middle" x="500" y="-304.2" font-family="Courier,monospace" font-size="11.00">ParseMemoryStorage</text>
</g>
<!-- \\Parse\\ParseStorageInterface -->
<g id="node43" class="node"><title>\\Parse\\ParseStorageInterface</title>
<polygon fill="none" stroke="black" points="342,-312 184,-312 184,-276 342,-276 342,-312"/>
<text text-anchor="middle" x="263" y="-291.2" font-family="Courier,monospace" font-size="11.00">ParseStorageInterface</text>
</g>
<!-- \\Parse\\ParseMemoryStorage&#45;&gt;\\Parse\\ParseStorageInterface -->
<g id="edge12" class="edge"><title>\\Parse\\ParseMemoryStorage&#45;&gt;\\Parse\\ParseStorageInterface</title>
<path fill="none" stroke="black" stroke-dasharray="1,5" d="M430.713,-303.222C406.307,-301.872 378.444,-300.331 352.575,-298.9"/>
<polygon fill="none" stroke="black" points="352.57,-295.394 342.392,-298.337 352.183,-302.384 352.57,-295.394"/>
</g>
<!-- \\Parse\\ParseCloud -->
<g id="node28" class="node"><title>\\Parse\\ParseCloud</title>
<polygon fill="none" stroke="black" points="542,-1084 458,-1084 458,-1048 542,-1048 542,-1084"/>
<text text-anchor="middle" x="500" y="-1063.2" font-family="Courier,monospace" font-size="11.00">ParseCloud</text>
</g>
<!-- \\Parse\\ParseACL -->
<g id="node29" class="node"><title>\\Parse\\ParseACL</title>
<polygon fill="none" stroke="black" points="298.5,-366 227.5,-366 227.5,-330 298.5,-330 298.5,-366"/>
<text text-anchor="middle" x="263" y="-345.2" font-family="Courier,monospace" font-size="11.00">ParseACL</text>
</g>
<!-- \\Parse\\ParseACL&#45;&gt;\\Parse\\Internal\\Encodable -->
<g id="edge13" class="edge"><title>\\Parse\\ParseACL&#45;&gt;\\Parse\\Internal\\Encodable</title>
<path fill="none" stroke="black" stroke-dasharray="1,5" d="M227.355,-357.683C213.509,-362.14 197.644,-368.004 184,-375 154.335,-390.21 123.595,-412.433 101.841,-429.437"/>
<polygon fill="none" stroke="black" points="99.6326,-426.722 93.9651,-435.674 103.978,-432.21 99.6326,-426.722"/>
</g>
<!-- \\Parse\\ParseFile -->
<g id="node30" class="node"><title>\\Parse\\ParseFile</title>
<polygon fill="none" stroke="black" points="301.5,-258 224.5,-258 224.5,-222 301.5,-222 301.5,-258"/>
<text text-anchor="middle" x="263" y="-237.2" font-family="Courier,monospace" font-size="11.00">ParseFile</text>
</g>
<!-- \\Parse\\ParseFile&#45;&gt;\\Parse\\Internal\\Encodable -->
<g id="edge14" class="edge"><title>\\Parse\\ParseFile&#45;&gt;\\Parse\\Internal\\Encodable</title>
<path fill="none" stroke="black" stroke-dasharray="1,5" d="M224.394,-247.314C210.61,-251.386 195.568,-257.603 184,-267 130.791,-310.222 96.8048,-385.909 81.4791,-426.474"/>
<polygon fill="none" stroke="black" points="78.1467,-425.395 77.9845,-435.989 84.7175,-427.808 78.1467,-425.395"/>
</g>
<!-- \\Parse\\ParseServerInfo -->
<g id="node31" class="node"><title>\\Parse\\ParseServerInfo</title>
<polygon fill="none" stroke="black" points="559,-1030 441,-1030 441,-994 559,-994 559,-1030"/>
<text text-anchor="middle" x="500" y="-1009.2" font-family="Courier,monospace" font-size="11.00">ParseServerInfo</text>
</g>
<!-- \\Parse\\ParseRelation -->
<g id="node32" class="node"><title>\\Parse\\ParseRelation</title>
<polygon fill="none" stroke="black" points="315,-204 211,-204 211,-168 315,-168 315,-204"/>
<text text-anchor="middle" x="263" y="-183.2" font-family="Courier,monospace" font-size="11.00">ParseRelation</text>
</g>
<!-- \\Parse\\ParseRelation&#45;&gt;\\Parse\\Internal\\Encodable -->
<g id="edge17" class="edge"><title>\\Parse\\ParseRelation&#45;&gt;\\Parse\\Internal\\Encodable</title>
<path fill="none" stroke="black" stroke-dasharray="1,5" d="M210.907,-197.077C201.177,-200.924 191.657,-206.085 184,-213 118.945,-271.748 88.7637,-376.032 77.524,-425.908"/>
<polygon fill="none" stroke="black" points="74.1016,-425.176 75.4073,-435.69 80.9433,-426.656 74.1016,-425.176"/>
</g>
<!-- \\Parse\\ParseSessionStorage -->
<g id="node33" class="node"><title>\\Parse\\ParseSessionStorage</title>
<polygon fill="none" stroke="black" points="572.5,-271 427.5,-271 427.5,-235 572.5,-235 572.5,-271"/>
<text text-anchor="middle" x="500" y="-250.2" font-family="Courier,monospace" font-size="11.00">ParseSessionStorage</text>
</g>
<!-- \\Parse\\ParseSessionStorage&#45;&gt;\\Parse\\ParseStorageInterface -->
<g id="edge18" class="edge"><title>\\Parse\\ParseSessionStorage&#45;&gt;\\Parse\\ParseStorageInterface</title>
<path fill="none" stroke="black" stroke-dasharray="1,5" d="M427.215,-265.524C403.607,-269.643 377.082,-274.271 352.388,-278.579"/>
<polygon fill="none" stroke="black" points="351.547,-275.173 342.298,-280.34 352.75,-282.069 351.547,-275.173"/>
</g>
<!-- \\Parse\\ParseAnalytics -->
<g id="node34" class="node"><title>\\Parse\\ParseAnalytics</title>
<polygon fill="none" stroke="black" points="555.5,-922 444.5,-922 444.5,-886 555.5,-886 555.5,-922"/>
<text text-anchor="middle" x="500" y="-901.2" font-family="Courier,monospace" font-size="11.00">ParseAnalytics</text>
</g>
<!-- \\Parse\\ParseBytes -->
<g id="node35" class="node"><title>\\Parse\\ParseBytes</title>
<polygon fill="none" stroke="black" points="305,-150 221,-150 221,-114 305,-114 305,-150"/>
<text text-anchor="middle" x="263" y="-129.2" font-family="Courier,monospace" font-size="11.00">ParseBytes</text>
</g>
<!-- \\Parse\\ParseBytes&#45;&gt;\\Parse\\Internal\\Encodable -->
<g id="edge19" class="edge"><title>\\Parse\\ParseBytes&#45;&gt;\\Parse\\Internal\\Encodable</title>
<path fill="none" stroke="black" stroke-dasharray="1,5" d="M220.651,-139.103C207.587,-143.096 193.973,-149.318 184,-159 106.824,-233.924 82.1482,-367.452 74.8386,-425.615"/>
<polygon fill="none" stroke="black" points="71.3228,-425.545 73.6323,-435.885 78.275,-426.362 71.3228,-425.545"/>
</g>
<!-- \\Exception -->
<g id="node44" class="node"><title>\\Exception</title>
<ellipse fill="none" stroke="black" cx="71" cy="-18" rx="40.8928" ry="18"/>
<text text-anchor="middle" x="71" y="-14.3" font-family="Times,serif" font-size="14.00" fill="gray">xception</text>
</g>
<!-- \\Parse\\ParseException&#45;&gt;\\Exception -->
<g id="edge20" class="edge"><title>\\Parse\\ParseException&#45;&gt;\\Exception</title>
<path fill="none" stroke="black" d="M207.299,-60.726C177.715,-51.3836 141.73,-40.02 114.31,-31.3612"/>
<polygon fill="none" stroke="black" points="115.214,-27.9761 104.624,-28.3022 113.106,-34.6512 115.214,-27.9761"/>
</g>
<!-- \\Parse\\ParseSchema -->
<g id="node37" class="node"><title>\\Parse\\ParseSchema</title>
<polygon fill="none" stroke="black" points="545.5,-868 454.5,-868 454.5,-832 545.5,-832 545.5,-868"/>
<text text-anchor="middle" x="500" y="-847.2" font-family="Courier,monospace" font-size="11.00">ParseSchema</text>
</g>
<!-- \\Parse\\ParsePushStatus -->
<g id="node38" class="node"><title>\\Parse\\ParsePushStatus</title>
<polygon fill="none" stroke="black" points="559,-1570 441,-1570 441,-1534 559,-1534 559,-1570"/>
<text text-anchor="middle" x="500" y="-1549.2" font-family="Courier,monospace" font-size="11.00">ParsePushStatus</text>
</g>
<!-- \\Parse\\ParsePushStatus&#45;&gt;\\Parse\\ParseObject -->
<g id="edge22" class="edge"><title>\\Parse\\ParsePushStatus&#45;&gt;\\Parse\\ParseObject</title>
<path fill="none" stroke="black" d="M440.86,-1542.33C430.82,-1538.38 421.287,-1532.81 414,-1525 321.365,-1425.67 433.353,-1328.51 342,-1228 335.49,-1220.84 326.987,-1215.58 317.994,-1211.71"/>
<polygon fill="none" stroke="black" points="319.101,-1208.39 308.509,-1208.16 316.65,-1214.94 319.101,-1208.39"/>
</g>
<!-- \\Parse\\ParsePolygon -->
<g id="node39" class="node"><title>\\Parse\\ParsePolygon</title>
<polygon fill="none" stroke="black" points="312,-1273 214,-1273 214,-1237 312,-1237 312,-1273"/>
<text text-anchor="middle" x="263" y="-1252.2" font-family="Courier,monospace" font-size="11.00">ParsePolygon</text>
</g>
<!-- \\Parse\\ParsePolygon&#45;&gt;\\Parse\\Internal\\Encodable -->
<g id="edge23" class="edge"><title>\\Parse\\ParsePolygon&#45;&gt;\\Parse\\Internal\\Encodable</title>
<path fill="none" stroke="black" stroke-dasharray="1,5" d="M213.661,-1247.24C202.44,-1243.23 191.577,-1237.17 184,-1228 87.344,-1111.04 74.0908,-608.332 72.2836,-482.594"/>
<polygon fill="none" stroke="black" points="75.779,-482.214 72.1492,-472.26 68.7796,-482.305 75.779,-482.214"/>
</g>
<!-- \\Parse\\ParseLogs -->
<g id="node40" class="node"><title>\\Parse\\ParseLogs</title>
<polygon fill="none" stroke="black" points="538.5,-405 461.5,-405 461.5,-369 538.5,-369 538.5,-405"/>
<text text-anchor="middle" x="500" y="-384.2" font-family="Courier,monospace" font-size="11.00">ParseLogs</text>
</g>
<!-- \\Parse\\ParseAudience -->
<g id="node41" class="node"><title>\\Parse\\ParseAudience</title>
<polygon fill="none" stroke="black" points="552,-1354 448,-1354 448,-1318 552,-1318 552,-1354"/>
<text text-anchor="middle" x="500" y="-1333.2" font-family="Courier,monospace" font-size="11.00">ParseAudience</text>
</g>
<!-- \\Parse\\ParseAudience&#45;&gt;\\Parse\\ParseObject -->
<g id="edge25" class="edge"><title>\\Parse\\ParseAudience&#45;&gt;\\Parse\\ParseObject</title>
<path fill="none" stroke="black" d="M447.556,-1324.53C435.977,-1320.65 424.129,-1315.58 414,-1309 373.602,-1282.77 382.058,-1254.75 342,-1228 334.726,-1223.14 326.488,-1219.07 318.158,-1215.68"/>
<polygon fill="none" stroke="black" points="319.352,-1212.39 308.76,-1212.13 316.883,-1218.94 319.352,-1212.39"/>
</g>
<!-- \\Parse\\ParseRole -->
<g id="node42" class="node"><title>\\Parse\\ParseRole</title>
<polygon fill="none" stroke="black" points="538.5,-1300 461.5,-1300 461.5,-1264 538.5,-1264 538.5,-1300"/>
<text text-anchor="middle" x="500" y="-1279.2" font-family="Courier,monospace" font-size="11.00">ParseRole</text>
</g>
<!-- \\Parse\\ParseRole&#45;&gt;\\Parse\\ParseObject -->
<g id="edge26" class="edge"><title>\\Parse\\ParseRole&#45;&gt;\\Parse\\ParseObject</title>
<path fill="none" stroke="black" d="M461.204,-1270.45C446.424,-1265.81 429.364,-1260.32 414,-1255 381.703,-1243.82 374.151,-1239.59 342,-1228 334.333,-1225.24 326.222,-1222.37 318.244,-1219.58"/>
<polygon fill="none" stroke="black" points="319.212,-1216.21 308.617,-1216.22 316.91,-1222.82 319.212,-1216.21"/>
</g>
</g>
</svg>
