<?xml version="1.0" encoding="UTF-8" standalone="no"?>
<!DOCTYPE svg PUBLIC "-//W3C//DTD SVG 1.1//EN"
 "http://www.w3.org/Graphics/SVG/1.1/DTD/svg11.dtd">
<!-- Generated by graphviz version 2.38.0 (20140413.2041)
 -->
<!-- Title: G Pages: 1 -->
<svg width="701pt" height="1048pt"
 viewBox="0.00 0.00 701.35 1048.00" xmlns="http://www.w3.org/2000/svg" xmlns:xlink="http://www.w3.org/1999/xlink">
<g id="graph0" class="graph" transform="scale(1 1) rotate(0) translate(4 1044)">
<title>G</title>
<polygon fill="white" stroke="none" points="-4,4 -4,-1044 697.351,-1044 697.351,4 -4,4"/>
<g id="clust1" class="cluster"><title>cluster_Global</title>
<path fill="none" stroke="gray" d="M270.904,-8C270.904,-8 673.351,-8 673.351,-8 679.351,-8 685.351,-14 685.351,-20 685.351,-20 685.351,-1020 685.351,-1020 685.351,-1026 679.351,-1032 673.351,-1032 673.351,-1032 270.904,-1032 270.904,-1032 264.904,-1032 258.904,-1026 258.904,-1020 258.904,-1020 258.904,-20 258.904,-20 258.904,-14 264.904,-8 270.904,-8"/>
<text text-anchor="middle" x="472.127" y="-1019.2" font-family="Times,serif" font-size="11.00" fill="gray">Global</text>
</g>
<g id="clust2" class="cluster"><title>cluster_\Parse</title>
<path fill="none" stroke="gray" d="M278.904,-16C278.904,-16 665.351,-16 665.351,-16 671.351,-16 677.351,-22 677.351,-28 677.351,-28 677.351,-993 677.351,-993 677.351,-999 671.351,-1005 665.351,-1005 665.351,-1005 278.904,-1005 278.904,-1005 272.904,-1005 266.904,-999 266.904,-993 266.904,-993 266.904,-28 266.904,-28 266.904,-22 272.904,-16 278.904,-16"/>
<text text-anchor="middle" x="472.127" y="-992.2" font-family="Times,serif" font-size="11.00" fill="gray">Parse</text>
</g>
<!-- \\Parse\\ParseClient -->
<g id="node1" class="node"><title>\\Parse\\ParseClient</title>
<polygon fill="none" stroke="black" points="629.551,-978 541.326,-978 541.326,-942 629.551,-942 629.551,-978"/>
<text text-anchor="middle" x="585.439" y="-956.7" font-family="Courier,monospace" font-size="11.00">ParseClient</text>
</g>
<!-- \\Parse\\ParseUser -->
<g id="node2" class="node"><title>\\Parse\\ParseUser</title>
<polygon fill="none" stroke="black" points="623.349,-816 547.528,-816 547.528,-780 623.349,-780 623.349,-816"/>
<text text-anchor="middle" x="585.439" y="-794.7" font-family="Courier,monospace" font-size="11.00">ParseUser</text>
</g>
<!-- \\Parse\\ParseObject -->
<g id="node5" class="node"><title>\\Parse\\ParseObject</title>
<polygon fill="none" stroke="black" points="396.328,-654 308.102,-654 308.102,-618 396.328,-618 396.328,-654"/>
<text text-anchor="middle" x="352.215" y="-632.7" font-family="Courier,monospace" font-size="11.00">ParseObject</text>
</g>
<!-- \\Parse\\ParseUser&#45;&gt;\\Parse\\ParseObject -->
<g id="edge1" class="edge"><title>\\Parse\\ParseUser&#45;&gt;\\Parse\\ParseObject</title>
<path fill="none" stroke="black" d="M547.518,-789.601C532.626,-785.307 515.661,-779.218 501.526,-771 450.685,-741.441 402.369,-692.119 375.379,-661.98"/>
<polygon fill="none" stroke="black" points="377.913,-659.562 368.668,-654.388 372.669,-664.198 377.913,-659.562"/>
</g>
<!-- \\Parse\\ParseInstallation -->
<g id="node3" class="node"><title>\\Parse\\ParseInstallation</title>
<polygon fill="none" stroke="black" points="649.657,-654 521.22,-654 521.22,-618 649.657,-618 649.657,-654"/>
<text text-anchor="middle" x="585.439" y="-632.7" font-family="Courier,monospace" font-size="11.00">ParseInstallation</text>
</g>
<!-- \\Parse\\ParseInstallation&#45;&gt;\\Parse\\ParseObject -->
<g id="edge2" class="edge"><title>\\Parse\\ParseInstallation&#45;&gt;\\Parse\\ParseObject</title>
<path fill="none" stroke="black" d="M521.256,-636C485.387,-636 440.977,-636 406.821,-636"/>
<polygon fill="none" stroke="black" points="406.571,-632.5 396.571,-636 406.571,-639.5 406.571,-632.5"/>
</g>
<!-- \\Parse\\ParseGeoPoint -->
<g id="node4" class="node"><title>\\Parse\\ParseGeoPoint</title>
<polygon fill="none" stroke="black" points="636.253,-330 534.625,-330 534.625,-294 636.253,-294 636.253,-330"/>
<text text-anchor="middle" x="585.439" y="-308.7" font-family="Courier,monospace" font-size="11.00">ParseGeoPoint</text>
</g>
<!-- \\Parse\\Internal\\Encodable -->
<g id="node22" class="node"><title>\\Parse\\Internal\\Encodable</title>
<ellipse fill="none" stroke="black" cx="101.452" cy="-420" rx="101.404" ry="18"/>
<text text-anchor="middle" x="101.452" y="-415.8" font-family="Times,serif" font-size="14.00" fill="gray">\Parse\Internal\Encodable</text>
</g>
<!-- \\Parse\\ParseGeoPoint&#45;&gt;\\Parse\\Internal\\Encodable -->
<g id="edge3" class="edge"><title>\\Parse\\ParseGeoPoint&#45;&gt;\\Parse\\Internal\\Encodable</title>
<path fill="none" stroke="black" stroke-dasharray="1,5" d="M534.34,-297.34C523.384,-293.678 511.951,-289.498 501.526,-285 432.566,-255.245 421.119,-171.908 353.215,-204"/>
</g>
<!-- \\Parse\\ParseObject&#45;&gt;\\Parse\\Internal\\Encodable -->
<g id="edge4" class="edge"><title>\\Parse\\ParseObject&#45;&gt;\\Parse\\Internal\\Encodable</title>
<path fill="none" stroke="black" stroke-dasharray="1,5" d="M330.434,-617.955C285.875,-579.265 181.102,-488.291 130.618,-444.456"/>
<polygon fill="none" stroke="black" points="132.845,-441.755 122.999,-437.841 128.255,-447.04 132.845,-441.755"/>
</g>
<!-- \\Parse\\ParseConfig -->
<g id="node6" class="node"><title>\\Parse\\ParseConfig</title>
<polygon fill="none" stroke="black" points="629.551,-762 541.326,-762 541.326,-726 629.551,-726 629.551,-762"/>
<text text-anchor="middle" x="585.439" y="-740.7" font-family="Courier,monospace" font-size="11.00">ParseConfig</text>
</g>
<!-- \\Parse\\ParsePush -->
<g id="node7" class="node"><title>\\Parse\\ParsePush</title>
<polygon fill="none" stroke="black" points="623.349,-708 547.528,-708 547.528,-672 623.349,-672 623.349,-708"/>
<text text-anchor="middle" x="585.439" y="-686.7" font-family="Courier,monospace" font-size="11.00">ParsePush</text>
</g>
<!-- \\Parse\\ParseSession -->
<g id="node8" class="node"><title>\\Parse\\ParseSession</title>
<polygon fill="none" stroke="black" points="633.152,-600 537.726,-600 537.726,-564 633.152,-564 633.152,-600"/>
<text text-anchor="middle" x="585.439" y="-578.7" font-family="Courier,monospace" font-size="11.00">ParseSession</text>
</g>
<!-- \\Parse\\ParseSession&#45;&gt;\\Parse\\ParseObject -->
<g id="edge5" class="edge"><title>\\Parse\\ParseSession&#45;&gt;\\Parse\\ParseObject</title>
<path fill="none" stroke="black" d="M537.647,-592.928C499.57,-601.82 445.834,-614.37 406.182,-623.63"/>
<polygon fill="none" stroke="black" points="405.364,-620.227 396.422,-625.909 406.956,-627.043 405.364,-620.227"/>
</g>
<!-- \\Parse\\ParseAggregateException -->
<g id="node9" class="node"><title>\\Parse\\ParseAggregateException</title>
<polygon fill="none" stroke="black" points="669.263,-924 501.614,-924 501.614,-888 669.263,-888 669.263,-924"/>
<text text-anchor="middle" x="585.439" y="-902.7" font-family="Courier,monospace" font-size="11.00">ParseAggregateException</text>
</g>
<!-- \\Parse\\ParseException -->
<g id="node19" class="node"><title>\\Parse\\ParseException</title>
<polygon fill="none" stroke="black" points="406.631,-924 297.799,-924 297.799,-888 406.631,-888 406.631,-924"/>
<text text-anchor="middle" x="352.215" y="-902.7" font-family="Courier,monospace" font-size="11.00">ParseException</text>
</g>
<!-- \\Parse\\ParseAggregateException&#45;&gt;\\Parse\\ParseException -->
<g id="edge6" class="edge"><title>\\Parse\\ParseAggregateException&#45;&gt;\\Parse\\ParseException</title>
<path fill="none" stroke="black" d="M501.288,-906C473.399,-906 442.768,-906 416.638,-906"/>
<polygon fill="none" stroke="black" points="416.487,-902.5 406.487,-906 416.487,-909.5 416.487,-902.5"/>
</g>
<!-- \\Parse\\ParseQuery -->
<g id="node10" class="node"><title>\\Parse\\ParseQuery</title>
<polygon fill="none" stroke="black" points="626.449,-546 544.428,-546 544.428,-510 626.449,-510 626.449,-546"/>
<text text-anchor="middle" x="585.439" y="-524.7" font-family="Courier,monospace" font-size="11.00">ParseQuery</text>
</g>
<!-- \\Parse\\ParseMemoryStorage -->
<g id="node11" class="node"><title>\\Parse\\ParseMemoryStorage</title>
<polygon fill="none" stroke="black" points="652.758,-384 518.119,-384 518.119,-348 652.758,-348 652.758,-384"/>
<text text-anchor="middle" x="585.439" y="-362.7" font-family="Courier,monospace" font-size="11.00">ParseMemoryStorage</text>
</g>
<!-- \\Parse\\ParseStorageInterface -->
<g id="node21" class="node"><title>\\Parse\\ParseStorageInterface</title>
<polygon fill="none" stroke="black" points="429.338,-438 275.092,-438 275.092,-402 429.338,-402 429.338,-438"/>
<text text-anchor="middle" x="352.215" y="-416.7" font-family="Courier,monospace" font-size="11.00">ParseStorageInterface</text>
</g>
<!-- \\Parse\\ParseMemoryStorage&#45;&gt;\\Parse\\ParseStorageInterface -->
<g id="edge7" class="edge"><title>\\Parse\\ParseMemoryStorage&#45;&gt;\\Parse\\ParseStorageInterface</title>
<path fill="none" stroke="black" stroke-dasharray="1,5" d="M517.869,-381.547C493.381,-387.266 465.289,-393.826 439.325,-399.89"/>
<polygon fill="none" stroke="black" points="438.432,-396.504 429.49,-402.187 440.024,-403.321 438.432,-396.504"/>
</g>
<!-- \\Parse\\ParseCloud -->
<g id="node12" class="node"><title>\\Parse\\ParseCloud</title>
<polygon fill="none" stroke="black" points="626.449,-438 544.428,-438 544.428,-402 626.449,-402 626.449,-438"/>
<text text-anchor="middle" x="585.439" y="-416.7" font-family="Courier,monospace" font-size="11.00">ParseCloud</text>
</g>
<!-- \\Parse\\ParseACL -->
<g id="node13" class="node"><title>\\Parse\\ParseACL</title>
<polygon fill="none" stroke="black" points="619.748,-222 551.13,-222 551.13,-186 619.748,-186 619.748,-222"/>
<text text-anchor="middle" x="585.439" y="-200.7" font-family="Courier,monospace" font-size="11.00">ParseACL</text>
</g>
<!-- \\Parse\\ParseACL&#45;&gt;\\Parse\\Internal\\Encodable -->
<g id="edge8" class="edge"><title>\\Parse\\ParseACL&#45;&gt;\\Parse\\Internal\\Encodable</title>
<path fill="none" stroke="black" stroke-dasharray="1,5" d="M551.115,-195.497C504.37,-185.394 417.818,-173.468 353.215,-204"/>
</g>
<!-- \\Parse\\ParseFile -->
<g id="node14" class="node"><title>\\Parse\\ParseFile</title>
<polygon fill="none" stroke="black" points="623.349,-114 547.528,-114 547.528,-78 623.349,-78 623.349,-114"/>
<text text-anchor="middle" x="585.439" y="-92.7" font-family="Courier,monospace" font-size="11.00">ParseFile</text>
</g>
<!-- \\Parse\\ParseFile&#45;&gt;\\Parse\\Internal\\Encodable -->
<g id="edge9" class="edge"><title>\\Parse\\ParseFile&#45;&gt;\\Parse\\Internal\\Encodable</title>
<path fill="none" stroke="black" stroke-dasharray="1,5" d="M547.575,-106.398C533.008,-110.921 516.26,-116.643 501.526,-123 432.566,-152.755 421.119,-171.908 353.215,-204"/>
</g>
<!-- \\Parse\\ParseRelation -->
<g id="node15" class="node"><title>\\Parse\\ParseRelation</title>
<polygon fill="none" stroke="black" points="636.253,-276 534.625,-276 534.625,-240 636.253,-240 636.253,-276"/>
<text text-anchor="middle" x="585.439" y="-254.7" font-family="Courier,monospace" font-size="11.00">ParseRelation</text>
</g>
<!-- \\Parse\\ParseSessionStorage -->
<g id="node16" class="node"><title>\\Parse\\ParseSessionStorage</title>
<polygon fill="none" stroke="black" points="656.36,-492 514.518,-492 514.518,-456 656.36,-456 656.36,-492"/>
<text text-anchor="middle" x="585.439" y="-470.7" font-family="Courier,monospace" font-size="11.00">ParseSessionStorage</text>
</g>
<!-- \\Parse\\ParseSessionStorage&#45;&gt;\\Parse\\ParseStorageInterface -->
<g id="edge10" class="edge"><title>\\Parse\\ParseSessionStorage&#45;&gt;\\Parse\\ParseStorageInterface</title>
<path fill="none" stroke="black" stroke-dasharray="1,5" d="M514.436,-457.652C490.733,-452.116 463.983,-445.869 439.185,-440.077"/>
<polygon fill="none" stroke="black" points="439.958,-436.664 429.424,-437.798 438.366,-443.481 439.958,-436.664"/>
</g>
<!-- \\Parse\\ParseAnalytics -->
<g id="node17" class="node"><title>\\Parse\\ParseAnalytics</title>
<polygon fill="none" stroke="black" points="639.855,-168 531.023,-168 531.023,-132 639.855,-132 639.855,-168"/>
<text text-anchor="middle" x="585.439" y="-146.7" font-family="Courier,monospace" font-size="11.00">ParseAnalytics</text>
</g>
<!-- \\Parse\\ParseBytes -->
<g id="node18" class="node"><title>\\Parse\\ParseBytes</title>
<polygon fill="none" stroke="black" points="626.449,-60 544.428,-60 544.428,-24 626.449,-24 626.449,-60"/>
<text text-anchor="middle" x="585.439" y="-38.7" font-family="Courier,monospace" font-size="11.00">ParseBytes</text>
</g>
<!-- \\Parse\\ParseBytes&#45;&gt;\\Parse\\Internal\\Encodable -->
<g id="edge11" class="edge"><title>\\Parse\\ParseBytes&#45;&gt;\\Parse\\Internal\\Encodable</title>
<path fill="none" stroke="black" stroke-dasharray="1,5" d="M351.215,-204C252.429,-250.687 162.554,-347.973 123.299,-394.346"/>
<polygon fill="none" stroke="black" points="120.52,-392.212 116.784,-402.126 125.888,-396.706 120.52,-392.212"/>
<path fill="none" stroke="black" stroke-dasharray="1,5" d="M544.176,-51.3825C530.128,-55.6067 514.614,-61.391 501.526,-69 424.469,-113.801 433.803,-165.913 353.215,-204"/>
</g>
<!-- \\Exception -->
<g id="node23" class="node"><title>\\Exception</title>
<ellipse fill="none" stroke="black" cx="101.452" cy="-906" rx="48.3341" ry="18"/>
<text text-anchor="middle" x="101.452" y="-901.8" font-family="Times,serif" font-size="14.00" fill="gray">\Exception</text>
</g>
<!-- \\Parse\\ParseException&#45;&gt;\\Exception -->
<g id="edge12" class="edge"><title>\\Parse\\ParseException&#45;&gt;\\Exception</title>
<path fill="none" stroke="black" d="M297.849,-906C257.445,-906 202.005,-906 160.498,-906"/>
<polygon fill="none" stroke="black" points="160.263,-902.5 150.263,-906 160.263,-909.5 160.263,-902.5"/>
</g>
<!-- \\Parse\\ParseRole -->
<g id="node20" class="node"><title>\\Parse\\ParseRole</title>
<polygon fill="none" stroke="black" points="623.349,-870 547.528,-870 547.528,-834 623.349,-834 623.349,-870"/>
<text text-anchor="middle" x="585.439" y="-848.7" font-family="Courier,monospace" font-size="11.00">ParseRole</text>
</g>
<!-- \\Parse\\ParseRole&#45;&gt;\\Parse\\ParseObject -->
<g id="edge13" class="edge"><title>\\Parse\\ParseRole&#45;&gt;\\Parse\\ParseObject</title>
<path fill="none" stroke="black" d="M547.613,-844.981C532.402,-840.868 515.174,-834.541 501.526,-825 439.21,-781.434 390.437,-704.074 367.519,-663.142"/>
<polygon fill="none" stroke="black" points="370.527,-661.348 362.64,-654.273 364.394,-664.722 370.527,-661.348"/>
</g>
</g>
</svg>
