<?xml version="1.0" encoding="UTF-8" standalone="no"?>
<!DOCTYPE svg PUBLIC "-//W3C//DTD SVG 1.1//EN"
 "http://www.w3.org/Graphics/SVG/1.1/DTD/svg11.dtd">
<!-- Generated by graphviz version 2.40.1 (20161225.0304)
 -->
<!-- Title: G Pages: 1 -->
<svg width="613pt" height="1774pt"
 viewBox="0.00 0.00 613.41 1774.00" xmlns="http://www.w3.org/2000/svg" xmlns:xlink="http://www.w3.org/1999/xlink">
<g id="graph0" class="graph" transform="scale(1 1) rotate(0) translate(4 1770)">
<title>G</title>
<polygon fill="#ffffff" stroke="transparent" points="-4,4 -4,-1770 609.4096,-1770 609.4096,4 -4,4"/>
<g id="clust1" class="cluster">
<title>cluster_Global</title>
<path fill="none" stroke="#c0c0c0" d="M20,-44C20,-44 585.4096,-44 585.4096,-44 591.4096,-44 597.4096,-50 597.4096,-56 597.4096,-56 597.4096,-1746 597.4096,-1746 597.4096,-1752 591.4096,-1758 585.4096,-1758 585.4096,-1758 20,-1758 20,-1758 14,-1758 8,-1752 8,-1746 8,-1746 8,-56 8,-56 8,-50 14,-44 20,-44"/>
<text text-anchor="middle" x="302.7048" y="-1745.2" font-family="Times,serif" font-size="11.00" fill="#c0c0c0">Global</text>
</g>
<g id="clust2" class="cluster">
<title>cluster_\Parse</title>
<path fill="none" stroke="#c0c0c0" d="M28,-52C28,-52 577.4096,-52 577.4096,-52 583.4096,-52 589.4096,-58 589.4096,-64 589.4096,-64 589.4096,-1719 589.4096,-1719 589.4096,-1725 583.4096,-1731 577.4096,-1731 577.4096,-1731 28,-1731 28,-1731 22,-1731 16,-1725 16,-1719 16,-1719 16,-64 16,-64 16,-58 22,-52 28,-52"/>
<text text-anchor="middle" x="302.7048" y="-1718.2" font-family="Times,serif" font-size="11.00" fill="#c0c0c0">Parse</text>
</g>
<g id="clust3" class="cluster">
<title>cluster_\Parse\Internal</title>
<path fill="none" stroke="#c0c0c0" d="M36,-970C36,-970 569.4096,-970 569.4096,-970 575.4096,-970 581.4096,-976 581.4096,-982 581.4096,-982 581.4096,-1353 581.4096,-1353 581.4096,-1359 575.4096,-1365 569.4096,-1365 569.4096,-1365 36,-1365 36,-1365 30,-1365 24,-1359 24,-1353 24,-1353 24,-982 24,-982 24,-976 30,-970 36,-970"/>
<text text-anchor="middle" x="302.7048" y="-1352.2" font-family="Times,serif" font-size="11.00" fill="#c0c0c0">Internal</text>
</g>
<g id="clust4" class="cluster">
<title>cluster_\Parse\HttpClients</title>
<path fill="none" stroke="#c0c0c0" d="M212.6672,-1471C212.6672,-1471 566.1091,-1471 566.1091,-1471 572.1091,-1471 578.1091,-1477 578.1091,-1483 578.1091,-1483 578.1091,-1692 578.1091,-1692 578.1091,-1698 572.1091,-1704 566.1091,-1704 566.1091,-1704 212.6672,-1704 212.6672,-1704 206.6672,-1704 200.6672,-1698 200.6672,-1692 200.6672,-1692 200.6672,-1483 200.6672,-1483 200.6672,-1477 206.6672,-1471 212.6672,-1471"/>
<text text-anchor="middle" x="389.3881" y="-1691.2" font-family="Times,serif" font-size="11.00" fill="#c0c0c0">HttpClients</text>
</g>
<!-- \\Parse\\Internal\\AddUniqueOperation -->
<g id="node1" class="node">
<title>\\Parse\\Internal\\AddUniqueOperation</title>
<polygon fill="none" stroke="#000000" points="560.1173,-1338 425.4783,-1338 425.4783,-1302 560.1173,-1302 560.1173,-1338"/>
<text text-anchor="middle" x="492.7978" y="-1316.7" font-family="Courier,monospace" font-size="11.00" fill="#000000">AddUniqueOperation</text>
</g>
<!-- \\Parse\\Internal\\FieldOperation -->
<g id="node8" class="node">
<title>\\Parse\\Internal\\FieldOperation</title>
<polygon fill="none" stroke="#000000" points="313.99,-1149 205.1583,-1149 205.1583,-1113 313.99,-1113 313.99,-1149"/>
<text text-anchor="middle" x="259.5742" y="-1127.7" font-family="Courier,monospace" font-size="11.00" fill="#000000">FieldOperation</text>
</g>
<!-- \\Parse\\Internal\\AddUniqueOperation&#45;&gt;\\Parse\\Internal\\FieldOperation -->
<g id="edge1" class="edge">
<title>\\Parse\\Internal\\AddUniqueOperation&#45;&gt;\\Parse\\Internal\\FieldOperation</title>
<path fill="none" stroke="#000000" stroke-dasharray="1,5" d="M425.1953,-1303.6588C419.3385,-1300.6786 413.7868,-1297.1581 408.8854,-1293 355.5306,-1247.7356 391.0035,-1197.3491 336.8854,-1153 332.8075,-1149.6582 328.2493,-1146.8235 323.4414,-1144.4192"/>
<polygon fill="none" stroke="#000000" points="324.5158,-1141.0703 313.9486,-1140.3057 321.7325,-1147.4932 324.5158,-1141.0703"/>
</g>
<!-- \\Parse\\Internal\\ParseRelationOperation -->
<g id="node2" class="node">
<title>\\Parse\\Internal\\ParseRelationOperation</title>
<polygon fill="none" stroke="#000000" points="573.5216,-1284 412.074,-1284 412.074,-1248 573.5216,-1248 573.5216,-1284"/>
<text text-anchor="middle" x="492.7978" y="-1262.7" font-family="Courier,monospace" font-size="11.00" fill="#000000">ParseRelationOperation</text>
</g>
<!-- \\Parse\\Internal\\ParseRelationOperation&#45;&gt;\\Parse\\Internal\\FieldOperation -->
<g id="edge4" class="edge">
<title>\\Parse\\Internal\\ParseRelationOperation&#45;&gt;\\Parse\\Internal\\FieldOperation</title>
<path fill="none" stroke="#000000" stroke-dasharray="1,5" d="M424.8067,-1247.8739C419.2264,-1245.2774 413.8364,-1242.3332 408.8854,-1239 367.5343,-1211.1608 378.7048,-1180.1308 336.8854,-1153 332.6051,-1150.223 327.9703,-1147.7905 323.1698,-1145.6608"/>
<polygon fill="none" stroke="#000000" points="324.3688,-1142.371 313.7832,-1141.9272 321.7816,-1148.8754 324.3688,-1142.371"/>
</g>
<!-- \\Parse\\Internal\\DeleteOperation -->
<g id="node3" class="node">
<title>\\Parse\\Internal\\DeleteOperation</title>
<polygon fill="none" stroke="#000000" points="550.3139,-1230 435.2817,-1230 435.2817,-1194 550.3139,-1194 550.3139,-1230"/>
<text text-anchor="middle" x="492.7978" y="-1208.7" font-family="Courier,monospace" font-size="11.00" fill="#000000">DeleteOperation</text>
</g>
<!-- \\Parse\\Internal\\DeleteOperation&#45;&gt;\\Parse\\Internal\\FieldOperation -->
<g id="edge9" class="edge">
<title>\\Parse\\Internal\\DeleteOperation&#45;&gt;\\Parse\\Internal\\FieldOperation</title>
<path fill="none" stroke="#000000" stroke-dasharray="1,5" d="M435.1875,-1194.3635C426.3247,-1191.3914 417.3206,-1188.221 408.8854,-1185 376.1712,-1172.508 369.8077,-1164.9329 336.8854,-1153 332.6379,-1151.4605 328.2283,-1149.9585 323.7654,-1148.5091"/>
<polygon fill="none" stroke="#000000" points="324.542,-1145.0845 313.9527,-1145.4263 322.4439,-1151.7627 324.542,-1145.0845"/>
</g>
<!-- \\Parse\\Internal\\SetOperation -->
<g id="node4" class="node">
<title>\\Parse\\Internal\\SetOperation</title>
<polygon fill="none" stroke="#000000" points="540.5109,-1176 445.0847,-1176 445.0847,-1140 540.5109,-1140 540.5109,-1176"/>
<text text-anchor="middle" x="492.7978" y="-1154.7" font-family="Courier,monospace" font-size="11.00" fill="#000000">SetOperation</text>
</g>
<!-- \\Parse\\Internal\\SetOperation&#45;&gt;\\Parse\\Internal\\FieldOperation -->
<g id="edge10" class="edge">
<title>\\Parse\\Internal\\SetOperation&#45;&gt;\\Parse\\Internal\\FieldOperation</title>
<path fill="none" stroke="#000000" stroke-dasharray="1,5" d="M445.0387,-1152.471C410.051,-1148.4205 362.1796,-1142.8785 323.8368,-1138.4396"/>
<polygon fill="none" stroke="#000000" points="324.1381,-1134.9512 313.8019,-1137.2779 323.3331,-1141.9048 324.1381,-1134.9512"/>
</g>
<!-- \\Parse\\Internal\\RemoveOperation -->
<g id="node5" class="node">
<title>\\Parse\\Internal\\RemoveOperation</title>
<polygon fill="none" stroke="#000000" points="550.3139,-1122 435.2817,-1122 435.2817,-1086 550.3139,-1086 550.3139,-1122"/>
<text text-anchor="middle" x="492.7978" y="-1100.7" font-family="Courier,monospace" font-size="11.00" fill="#000000">RemoveOperation</text>
</g>
<!-- \\Parse\\Internal\\RemoveOperation&#45;&gt;\\Parse\\Internal\\FieldOperation -->
<g id="edge15" class="edge">
<title>\\Parse\\Internal\\RemoveOperation&#45;&gt;\\Parse\\Internal\\FieldOperation</title>
<path fill="none" stroke="#000000" stroke-dasharray="1,5" d="M435.147,-1110.6742C401.5075,-1114.5686 358.9846,-1119.4914 324.2128,-1123.5169"/>
<polygon fill="none" stroke="#000000" points="323.6892,-1120.054 314.1581,-1124.6809 324.4943,-1127.0076 323.6892,-1120.054"/>
</g>
<!-- \\Parse\\Internal\\AddOperation -->
<g id="node6" class="node">
<title>\\Parse\\Internal\\AddOperation</title>
<polygon fill="none" stroke="#000000" points="540.5109,-1068 445.0847,-1068 445.0847,-1032 540.5109,-1032 540.5109,-1068"/>
<text text-anchor="middle" x="492.7978" y="-1046.7" font-family="Courier,monospace" font-size="11.00" fill="#000000">AddOperation</text>
</g>
<!-- \\Parse\\Internal\\AddOperation&#45;&gt;\\Parse\\Internal\\FieldOperation -->
<g id="edge20" class="edge">
<title>\\Parse\\Internal\\AddOperation&#45;&gt;\\Parse\\Internal\\FieldOperation</title>
<path fill="none" stroke="#000000" stroke-dasharray="1,5" d="M445.0061,-1064.4022C433.1188,-1068.2513 420.4659,-1072.578 408.8854,-1077 376.1712,-1089.492 369.8077,-1097.0671 336.8854,-1109 332.6379,-1110.5395 328.2283,-1112.0415 323.7654,-1113.4909"/>
<polygon fill="none" stroke="#000000" points="322.4439,-1110.2373 313.9527,-1116.5737 324.542,-1116.9155 322.4439,-1110.2373"/>
</g>
<!-- \\Parse\\Internal\\IncrementOperation -->
<g id="node7" class="node">
<title>\\Parse\\Internal\\IncrementOperation</title>
<polygon fill="none" stroke="#000000" points="560.1173,-1014 425.4783,-1014 425.4783,-978 560.1173,-978 560.1173,-1014"/>
<text text-anchor="middle" x="492.7978" y="-992.7" font-family="Courier,monospace" font-size="11.00" fill="#000000">IncrementOperation</text>
</g>
<!-- \\Parse\\Internal\\IncrementOperation&#45;&gt;\\Parse\\Internal\\FieldOperation -->
<g id="edge22" class="edge">
<title>\\Parse\\Internal\\IncrementOperation&#45;&gt;\\Parse\\Internal\\FieldOperation</title>
<path fill="none" stroke="#000000" stroke-dasharray="1,5" d="M425.2363,-1013.9271C419.5031,-1016.5718 413.9634,-1019.5813 408.8854,-1023 367.5343,-1050.8392 378.7048,-1081.8692 336.8854,-1109 332.6051,-1111.777 327.9703,-1114.2095 323.1698,-1116.3392"/>
<polygon fill="none" stroke="#000000" points="321.7816,-1113.1246 313.7832,-1120.0728 324.3688,-1119.629 321.7816,-1113.1246"/>
</g>
<!-- \\Parse\\Internal\\Encodable -->
<g id="node9" class="node">
<title>\\Parse\\Internal\\Encodable</title>
<polygon fill="none" stroke="#000000" points="107.6156,-1095 31.794,-1095 31.794,-1059 107.6156,-1059 107.6156,-1095"/>
<text text-anchor="middle" x="69.7048" y="-1073.7" font-family="Courier,monospace" font-size="11.00" fill="#000000">Encodable</text>
</g>
<!-- \\Parse\\Internal\\FieldOperation&#45;&gt;\\Parse\\Internal\\Encodable -->
<g id="edge24" class="edge">
<title>\\Parse\\Internal\\FieldOperation&#45;&gt;\\Parse\\Internal\\Encodable</title>
<path fill="none" stroke="#000000" d="M205.1652,-1115.5258C177.4722,-1107.6497 144.1153,-1098.1628 117.4325,-1090.574"/>
<polygon fill="none" stroke="#000000" points="118.1345,-1087.135 107.5585,-1087.7658 116.2196,-1093.868 118.1345,-1087.135"/>
</g>
<!-- \\Parse\\HttpClients\\ParseStream -->
<g id="node10" class="node">
<title>\\Parse\\HttpClients\\ParseStream</title>
<polygon fill="none" stroke="#000000" points="536.9105,-1677 448.6851,-1677 448.6851,-1641 536.9105,-1641 536.9105,-1677"/>
<text text-anchor="middle" x="492.7978" y="-1655.7" font-family="Courier,monospace" font-size="11.00" fill="#000000">ParseStream</text>
</g>
<!-- \\Parse\\HttpClients\\ParseCurl -->
<g id="node11" class="node">
<title>\\Parse\\HttpClients\\ParseCurl</title>
<polygon fill="none" stroke="#000000" points="530.7086,-1623 454.887,-1623 454.887,-1587 530.7086,-1587 530.7086,-1623"/>
<text text-anchor="middle" x="492.7978" y="-1601.7" font-family="Courier,monospace" font-size="11.00" fill="#000000">ParseCurl</text>
</g>
<!-- \\Parse\\HttpClients\\ParseStreamHttpClient -->
<g id="node12" class="node">
<title>\\Parse\\HttpClients\\ParseStreamHttpClient</title>
<polygon fill="none" stroke="#000000" points="569.9208,-1569 415.6748,-1569 415.6748,-1533 569.9208,-1533 569.9208,-1569"/>
<text text-anchor="middle" x="492.7978" y="-1547.7" font-family="Courier,monospace" font-size="11.00" fill="#000000">ParseStreamHttpClient</text>
</g>
<!-- \\Parse\\HttpClients\\ParseHttpable -->
<g id="node14" class="node">
<title>\\Parse\\HttpClients\\ParseHttpable</title>
<polygon fill="none" stroke="#000000" points="310.3883,-1543 208.76,-1543 208.76,-1507 310.3883,-1507 310.3883,-1543"/>
<text text-anchor="middle" x="259.5742" y="-1521.7" font-family="Courier,monospace" font-size="11.00" fill="#000000">ParseHttpable</text>
</g>
<!-- \\Parse\\HttpClients\\ParseStreamHttpClient&#45;&gt;\\Parse\\HttpClients\\ParseHttpable -->
<g id="edge11" class="edge">
<title>\\Parse\\HttpClients\\ParseStreamHttpClient&#45;&gt;\\Parse\\HttpClients\\ParseHttpable</title>
<path fill="none" stroke="#000000" stroke-dasharray="1,5" d="M415.4617,-1542.3785C384.6227,-1538.9405 349.6343,-1535.04 320.6298,-1531.8065"/>
<polygon fill="none" stroke="#000000" points="320.9629,-1528.3221 310.6367,-1530.6925 320.1873,-1535.279 320.9629,-1528.3221"/>
</g>
<!-- \\Parse\\HttpClients\\ParseCurlHttpClient -->
<g id="node13" class="node">
<title>\\Parse\\HttpClients\\ParseCurlHttpClient</title>
<polygon fill="none" stroke="#000000" points="563.7188,-1515 421.8768,-1515 421.8768,-1479 563.7188,-1479 563.7188,-1515"/>
<text text-anchor="middle" x="492.7978" y="-1493.7" font-family="Courier,monospace" font-size="11.00" fill="#000000">ParseCurlHttpClient</text>
</g>
<!-- \\Parse\\HttpClients\\ParseCurlHttpClient&#45;&gt;\\Parse\\HttpClients\\ParseHttpable -->
<g id="edge16" class="edge">
<title>\\Parse\\HttpClients\\ParseCurlHttpClient&#45;&gt;\\Parse\\HttpClients\\ParseHttpable</title>
<path fill="none" stroke="#000000" stroke-dasharray="1,5" d="M421.8731,-1505.515C389.6048,-1509.389 351.7926,-1513.9286 320.7872,-1517.651"/>
<polygon fill="none" stroke="#000000" points="320.0626,-1514.2127 310.5511,-1518.8799 320.8971,-1521.1628 320.0626,-1514.2127"/>
</g>
<!-- \\Parse\\ParseClient -->
<g id="node15" class="node">
<title>\\Parse\\ParseClient</title>
<polygon fill="none" stroke="#000000" points="536.9105,-1435 448.6851,-1435 448.6851,-1399 536.9105,-1399 536.9105,-1435"/>
<text text-anchor="middle" x="492.7978" y="-1413.7" font-family="Courier,monospace" font-size="11.00" fill="#000000">ParseClient</text>
</g>
<!-- \\Parse\\ParseUser -->
<g id="node16" class="node">
<title>\\Parse\\ParseUser</title>
<polygon fill="none" stroke="#000000" points="530.7086,-366 454.887,-366 454.887,-330 530.7086,-330 530.7086,-366"/>
<text text-anchor="middle" x="492.7978" y="-344.7" font-family="Courier,monospace" font-size="11.00" fill="#000000">ParseUser</text>
</g>
<!-- \\Parse\\ParseObject -->
<g id="node20" class="node">
<title>\\Parse\\ParseObject</title>
<polygon fill="none" stroke="#000000" points="303.6868,-744 215.4615,-744 215.4615,-708 303.6868,-708 303.6868,-744"/>
<text text-anchor="middle" x="259.5742" y="-722.7" font-family="Courier,monospace" font-size="11.00" fill="#000000">ParseObject</text>
</g>
<!-- \\Parse\\ParseUser&#45;&gt;\\Parse\\ParseObject -->
<g id="edge2" class="edge">
<title>\\Parse\\ParseUser&#45;&gt;\\Parse\\ParseObject</title>
<path fill="none" stroke="#000000" d="M454.8331,-351.8042C438.5628,-355.3412 420.6374,-362.1057 408.8854,-375 309.5195,-484.0248 434.8978,-588.7567 336.8854,-699 330.5055,-706.1761 322.1108,-711.445 313.2085,-715.3136"/>
<polygon fill="none" stroke="#000000" points="311.9314,-712.0546 303.8108,-718.8594 314.4025,-718.6039 311.9314,-712.0546"/>
</g>
<!-- \\Parse\\ParseInstallation -->
<g id="node17" class="node">
<title>\\Parse\\ParseInstallation</title>
<polygon fill="none" stroke="#000000" points="557.0162,-960 428.5793,-960 428.5793,-924 557.0162,-924 557.0162,-960"/>
<text text-anchor="middle" x="492.7978" y="-938.7" font-family="Courier,monospace" font-size="11.00" fill="#000000">ParseInstallation</text>
</g>
<!-- \\Parse\\ParseInstallation&#45;&gt;\\Parse\\ParseObject -->
<g id="edge3" class="edge">
<title>\\Parse\\ParseInstallation&#45;&gt;\\Parse\\ParseObject</title>
<path fill="none" stroke="#000000" d="M428.5807,-925.7869C421.6418,-922.7555 414.9201,-919.1885 408.8854,-915 346.1012,-871.4229 296.8616,-793.7369 273.827,-752.8547"/>
<polygon fill="none" stroke="#000000" points="276.8329,-751.0579 268.9271,-744.0046 270.7088,-754.4485 276.8329,-751.0579"/>
</g>
<!-- \\Parse\\ParseApp -->
<g id="node18" class="node">
<title>\\Parse\\ParseApp</title>
<polygon fill="none" stroke="#000000" points="527.1067,-906 458.4889,-906 458.4889,-870 527.1067,-870 527.1067,-906"/>
<text text-anchor="middle" x="492.7978" y="-884.7" font-family="Courier,monospace" font-size="11.00" fill="#000000">ParseApp</text>
</g>
<!-- \\Parse\\ParseGeoPoint -->
<g id="node19" class="node">
<title>\\Parse\\ParseGeoPoint</title>
<polygon fill="none" stroke="#000000" points="310.3883,-962 208.76,-962 208.76,-926 310.3883,-926 310.3883,-962"/>
<text text-anchor="middle" x="259.5742" y="-940.7" font-family="Courier,monospace" font-size="11.00" fill="#000000">ParseGeoPoint</text>
</g>
<!-- \\Parse\\ParseGeoPoint&#45;&gt;\\Parse\\Internal\\Encodable -->
<g id="edge5" class="edge">
<title>\\Parse\\ParseGeoPoint&#45;&gt;\\Parse\\Internal\\Encodable</title>
<path fill="none" stroke="#000000" stroke-dasharray="1,5" d="M208.5855,-954.5677C199.4851,-957.5397 190.3402,-961.2909 182.2629,-966 144.5588,-987.9818 110.2643,-1025.4858 89.6923,-1050.7455"/>
<polygon fill="none" stroke="#000000" points="86.7631,-1048.8045 83.2566,-1058.8023 92.2325,-1053.1733 86.7631,-1048.8045"/>
</g>
<!-- \\Parse\\ParseObject&#45;&gt;\\Parse\\Internal\\Encodable -->
<g id="edge6" class="edge">
<title>\\Parse\\ParseObject&#45;&gt;\\Parse\\Internal\\Encodable</title>
<path fill="none" stroke="#000000" stroke-dasharray="1,5" d="M249.6333,-744.3771C218.297,-802.3066 121.4671,-981.3102 84.3721,-1049.8855"/>
<polygon fill="none" stroke="#000000" points="81.2268,-1048.3439 79.5473,-1058.8048 87.3837,-1051.6745 81.2268,-1048.3439"/>
</g>
<!-- \\Parse\\ParseConfig -->
<g id="node21" class="node">
<title>\\Parse\\ParseConfig</title>
<polygon fill="none" stroke="#000000" points="536.9105,-852 448.6851,-852 448.6851,-816 536.9105,-816 536.9105,-852"/>
<text text-anchor="middle" x="492.7978" y="-830.7" font-family="Courier,monospace" font-size="11.00" fill="#000000">ParseConfig</text>
</g>
<!-- \\Parse\\ParsePush -->
<g id="node22" class="node">
<title>\\Parse\\ParsePush</title>
<polygon fill="none" stroke="#000000" points="530.7086,-798 454.887,-798 454.887,-762 530.7086,-762 530.7086,-798"/>
<text text-anchor="middle" x="492.7978" y="-776.7" font-family="Courier,monospace" font-size="11.00" fill="#000000">ParsePush</text>
</g>
<!-- \\Parse\\ParseSession -->
<g id="node23" class="node">
<title>\\Parse\\ParseSession</title>
<polygon fill="none" stroke="#000000" points="540.5109,-744 445.0847,-744 445.0847,-708 540.5109,-708 540.5109,-744"/>
<text text-anchor="middle" x="492.7978" y="-722.7" font-family="Courier,monospace" font-size="11.00" fill="#000000">ParseSession</text>
</g>
<!-- \\Parse\\ParseSession&#45;&gt;\\Parse\\ParseObject -->
<g id="edge7" class="edge">
<title>\\Parse\\ParseSession&#45;&gt;\\Parse\\ParseObject</title>
<path fill="none" stroke="#000000" d="M445.0387,-726C406.9116,-726 353.4852,-726 313.7621,-726"/>
<polygon fill="none" stroke="#000000" points="313.7192,-722.5001 303.7191,-726 313.7191,-729.5001 313.7192,-722.5001"/>
</g>
<!-- \\Parse\\ParseAggregateException -->
<g id="node24" class="node">
<title>\\Parse\\ParseAggregateException</title>
<polygon fill="none" stroke="#000000" points="576.6226,-96 408.973,-96 408.973,-60 576.6226,-60 576.6226,-96"/>
<text text-anchor="middle" x="492.7978" y="-74.7" font-family="Courier,monospace" font-size="11.00" fill="#000000">ParseAggregateException</text>
</g>
<!-- \\Parse\\ParseException -->
<g id="node35" class="node">
<title>\\Parse\\ParseException</title>
<polygon fill="none" stroke="#000000" points="313.99,-96 205.1583,-96 205.1583,-60 313.99,-60 313.99,-96"/>
<text text-anchor="middle" x="259.5742" y="-74.7" font-family="Courier,monospace" font-size="11.00" fill="#000000">ParseException</text>
</g>
<!-- \\Parse\\ParseAggregateException&#45;&gt;\\Parse\\ParseException -->
<g id="edge8" class="edge">
<title>\\Parse\\ParseAggregateException&#45;&gt;\\Parse\\ParseException</title>
<path fill="none" stroke="#000000" d="M408.9282,-78C381.0285,-78 350.4078,-78 324.1945,-78"/>
<polygon fill="none" stroke="#000000" points="324.0052,-74.5001 314.0052,-78 324.0052,-81.5001 324.0052,-74.5001"/>
</g>
<!-- \\Parse\\ParseHooks -->
<g id="node25" class="node">
<title>\\Parse\\ParseHooks</title>
<polygon fill="none" stroke="#000000" points="533.8085,-636 451.7871,-636 451.7871,-600 533.8085,-600 533.8085,-636"/>
<text text-anchor="middle" x="492.7978" y="-614.7" font-family="Courier,monospace" font-size="11.00" fill="#000000">ParseHooks</text>
</g>
<!-- \\Parse\\ParseQuery -->
<g id="node26" class="node">
<title>\\Parse\\ParseQuery</title>
<polygon fill="none" stroke="#000000" points="533.8085,-582 451.7871,-582 451.7871,-546 533.8085,-546 533.8085,-582"/>
<text text-anchor="middle" x="492.7978" y="-560.7" font-family="Courier,monospace" font-size="11.00" fill="#000000">ParseQuery</text>
</g>
<!-- \\Parse\\ParseMemoryStorage -->
<g id="node27" class="node">
<title>\\Parse\\ParseMemoryStorage</title>
<polygon fill="none" stroke="#000000" points="560.1173,-150 425.4783,-150 425.4783,-114 560.1173,-114 560.1173,-150"/>
<text text-anchor="middle" x="492.7978" y="-128.7" font-family="Courier,monospace" font-size="11.00" fill="#000000">ParseMemoryStorage</text>
</g>
<!-- \\Parse\\ParseStorageInterface -->
<g id="node39" class="node">
<title>\\Parse\\ParseStorageInterface</title>
<polygon fill="none" stroke="#000000" points="336.6972,-177 182.4511,-177 182.4511,-141 336.6972,-141 336.6972,-177"/>
<text text-anchor="middle" x="259.5742" y="-155.7" font-family="Courier,monospace" font-size="11.00" fill="#000000">ParseStorageInterface</text>
</g>
<!-- \\Parse\\ParseMemoryStorage&#45;&gt;\\Parse\\ParseStorageInterface -->
<g id="edge12" class="edge">
<title>\\Parse\\ParseMemoryStorage&#45;&gt;\\Parse\\ParseStorageInterface</title>
<path fill="none" stroke="#000000" stroke-dasharray="1,5" d="M425.3399,-139.8095C400.8742,-142.6419 372.8751,-145.8833 346.9395,-148.8858"/>
<polygon fill="none" stroke="#000000" points="346.2644,-145.4405 336.7333,-150.0674 347.0695,-152.3941 346.2644,-145.4405"/>
</g>
<!-- \\Parse\\ParseCloud -->
<g id="node28" class="node">
<title>\\Parse\\ParseCloud</title>
<polygon fill="none" stroke="#000000" points="533.8085,-474 451.7871,-474 451.7871,-438 533.8085,-438 533.8085,-474"/>
<text text-anchor="middle" x="492.7978" y="-452.7" font-family="Courier,monospace" font-size="11.00" fill="#000000">ParseCloud</text>
</g>
<!-- \\Parse\\ParseACL -->
<g id="node29" class="node">
<title>\\Parse\\ParseACL</title>
<polygon fill="none" stroke="#000000" points="293.883,-690 225.2653,-690 225.2653,-654 293.883,-654 293.883,-690"/>
<text text-anchor="middle" x="259.5742" y="-668.7" font-family="Courier,monospace" font-size="11.00" fill="#000000">ParseACL</text>
</g>
<!-- \\Parse\\ParseACL&#45;&gt;\\Parse\\Internal\\Encodable -->
<g id="edge13" class="edge">
<title>\\Parse\\ParseACL&#45;&gt;\\Parse\\Internal\\Encodable</title>
<path fill="none" stroke="#000000" stroke-dasharray="1,5" d="M224.931,-676.8842C210.0083,-680.6393 193.4533,-687.2758 182.2629,-699 132.8204,-750.8011 89.0323,-970.2903 74.6644,-1048.8721"/>
<polygon fill="none" stroke="#000000" points="71.1696,-1048.5298 72.8348,-1058.993 78.058,-1049.7751 71.1696,-1048.5298"/>
</g>
<!-- \\Parse\\ParseFile -->
<g id="node30" class="node">
<title>\\Parse\\ParseFile</title>
<polygon fill="none" stroke="#000000" points="297.485,-1463 221.6634,-1463 221.6634,-1427 297.485,-1427 297.485,-1463"/>
<text text-anchor="middle" x="259.5742" y="-1441.7" font-family="Courier,monospace" font-size="11.00" fill="#000000">ParseFile</text>
</g>
<!-- \\Parse\\ParseFile&#45;&gt;\\Parse\\Internal\\Encodable -->
<g id="edge14" class="edge">
<title>\\Parse\\ParseFile&#45;&gt;\\Parse\\Internal\\Encodable</title>
<path fill="none" stroke="#000000" stroke-dasharray="1,5" d="M221.5342,-1439.0121C207.6138,-1435.101 192.7275,-1428.6459 182.2629,-1418 94.4726,-1328.6889 75.1523,-1169.5765 70.9024,-1105.1979"/>
<polygon fill="none" stroke="#000000" points="74.3844,-1104.7861 70.3058,-1095.0078 67.3964,-1105.1953 74.3844,-1104.7861"/>
</g>
<!-- \\Parse\\ParseRelation -->
<g id="node31" class="node">
<title>\\Parse\\ParseRelation</title>
<polygon fill="none" stroke="#000000" points="543.6119,-420 441.9837,-420 441.9837,-384 543.6119,-384 543.6119,-420"/>
<text text-anchor="middle" x="492.7978" y="-398.7" font-family="Courier,monospace" font-size="11.00" fill="#000000">ParseRelation</text>
</g>
<!-- \\Parse\\ParseSessionStorage -->
<g id="node32" class="node">
<title>\\Parse\\ParseSessionStorage</title>
<polygon fill="none" stroke="#000000" points="563.7188,-204 421.8768,-204 421.8768,-168 563.7188,-168 563.7188,-204"/>
<text text-anchor="middle" x="492.7978" y="-182.7" font-family="Courier,monospace" font-size="11.00" fill="#000000">ParseSessionStorage</text>
</g>
<!-- \\Parse\\ParseSessionStorage&#45;&gt;\\Parse\\ParseStorageInterface -->
<g id="edge17" class="edge">
<title>\\Parse\\ParseSessionStorage&#45;&gt;\\Parse\\ParseStorageInterface</title>
<path fill="none" stroke="#000000" stroke-dasharray="1,5" d="M421.8731,-177.7891C398.3158,-175.0619 371.8037,-171.9927 347.1425,-169.1377"/>
<polygon fill="none" stroke="#000000" points="347.4034,-165.6446 337.0672,-167.9713 346.5983,-172.5981 347.4034,-165.6446"/>
</g>
<!-- \\Parse\\ParseAnalytics -->
<g id="node33" class="node">
<title>\\Parse\\ParseAnalytics</title>
<polygon fill="none" stroke="#000000" points="547.2136,-312 438.382,-312 438.382,-276 547.2136,-276 547.2136,-312"/>
<text text-anchor="middle" x="492.7978" y="-290.7" font-family="Courier,monospace" font-size="11.00" fill="#000000">ParseAnalytics</text>
</g>
<!-- \\Parse\\ParseBytes -->
<g id="node34" class="node">
<title>\\Parse\\ParseBytes</title>
<polygon fill="none" stroke="#000000" points="300.5849,-1409 218.5634,-1409 218.5634,-1373 300.5849,-1373 300.5849,-1409"/>
<text text-anchor="middle" x="259.5742" y="-1387.7" font-family="Courier,monospace" font-size="11.00" fill="#000000">ParseBytes</text>
</g>
<!-- \\Parse\\ParseBytes&#45;&gt;\\Parse\\Internal\\Encodable -->
<g id="edge18" class="edge">
<title>\\Parse\\ParseBytes&#45;&gt;\\Parse\\Internal\\Encodable</title>
<path fill="none" stroke="#000000" stroke-dasharray="1,5" d="M218.3175,-1386.5475C205.5005,-1383.386 192.1555,-1378.0338 182.2629,-1369 103.4905,-1297.0657 79.3387,-1163.7057 72.3601,-1105.4595"/>
<polygon fill="none" stroke="#000000" points="75.7997,-1104.7216 71.2148,-1095.1703 68.8426,-1105.4961 75.7997,-1104.7216"/>
</g>
<!-- \\Exception -->
<g id="node40" class="node">
<title>\\Exception</title>
<ellipse fill="none" stroke="#000000" cx="69.7048" cy="-18" rx="40.6162" ry="18"/>
<text text-anchor="middle" x="69.7048" y="-13.8" font-family="Times,serif" font-size="14.00" fill="#c0c0c0">xception</text>
</g>
<!-- \\Parse\\ParseException&#45;&gt;\\Exception -->
<g id="edge19" class="edge">
<title>\\Parse\\ParseException&#45;&gt;\\Exception</title>
<path fill="none" stroke="#000000" d="M205.1652,-60.8064C175.7887,-51.5232 140.0387,-40.226 112.6428,-31.5687"/>
<polygon fill="none" stroke="#000000" points="113.5448,-28.1832 102.9549,-28.5072 111.4355,-34.8578 113.5448,-28.1832"/>
</g>
<!-- \\Parse\\ParseSchema -->
<g id="node36" class="node">
<title>\\Parse\\ParseSchema</title>
<polygon fill="none" stroke="#000000" points="536.9105,-258 448.6851,-258 448.6851,-222 536.9105,-222 536.9105,-258"/>
<text text-anchor="middle" x="492.7978" y="-236.7" font-family="Courier,monospace" font-size="11.00" fill="#000000">ParseSchema</text>
</g>
<!-- \\Parse\\ParsePushStatus -->
<g id="node37" class="node">
<title>\\Parse\\ParsePushStatus</title>
<polygon fill="none" stroke="#000000" points="550.3139,-690 435.2817,-690 435.2817,-654 550.3139,-654 550.3139,-690"/>
<text text-anchor="middle" x="492.7978" y="-668.7" font-family="Courier,monospace" font-size="11.00" fill="#000000">ParsePushStatus</text>
</g>
<!-- \\Parse\\ParsePushStatus&#45;&gt;\\Parse\\ParseObject -->
<g id="edge21" class="edge">
<title>\\Parse\\ParsePushStatus&#45;&gt;\\Parse\\ParseObject</title>
<path fill="none" stroke="#000000" d="M435.147,-685.3483C398.0341,-693.9414 350.1085,-705.0379 313.7079,-713.466"/>
<polygon fill="none" stroke="#000000" points="312.718,-710.1025 303.7653,-715.7681 314.2971,-716.9221 312.718,-710.1025"/>
</g>
<!-- \\Parse\\ParseRole -->
<g id="node38" class="node">
<title>\\Parse\\ParseRole</title>
<polygon fill="none" stroke="#000000" points="530.7086,-528 454.887,-528 454.887,-492 530.7086,-492 530.7086,-528"/>
<text text-anchor="middle" x="492.7978" y="-506.7" font-family="Courier,monospace" font-size="11.00" fill="#000000">ParseRole</text>
</g>
<!-- \\Parse\\ParseRole&#45;&gt;\\Parse\\ParseObject -->
<g id="edge23" class="edge">
<title>\\Parse\\ParseRole&#45;&gt;\\Parse\\ParseObject</title>
<path fill="none" stroke="#000000" d="M454.6942,-515.2473C438.9759,-519.0635 421.5218,-525.6473 408.8854,-537 350.2744,-589.6569 394.8419,-645.6235 336.8854,-699 330.1272,-705.2242 321.8542,-710.0266 313.262,-713.7283"/>
<polygon fill="none" stroke="#000000" points="311.9548,-710.4809 303.8699,-717.3282 314.4602,-717.0173 311.9548,-710.4809"/>
</g>
</g>
</svg>
